Coordinates
version=1
nRows=8
nColumns=46
inDegrees=yes

Units are S.I. units (second, meters, Newtons, ...)
Angles are in degrees.

endheader
time	pelvis_tilt	pelvis_list	pelvis_rotation	pelvis_tx	pelvis_ty	pelvis_tz	bb_angle	bb_tx	bb_ty	bb_tz	hip_flexion_r	hip_adduction_r	hip_rotation_r	knee_angle_r	knee_angle_r_beta	ankle_angle_r	subtalar_angle_r	mtp_angle_r	crank_angle_r	hip_flexion_l	hip_adduction_l	hip_rotation_l	knee_angle_l	knee_angle_l_beta	ankle_angle_l	subtalar_angle_l	mtp_angle_l	crank_angle_l	lumbar_extension	lumbar_bending	lumbar_rotation	arm_flex_r	arm_add_r	arm_rot_r	elbow_flex_r	pro_sup_r	wrist_flex_r	wrist_dev_r	arm_flex_l	arm_add_l	arm_rot_l	elbow_flex_l	pro_sup_l	wrist_flex_l	wrist_dev_l
      2.50500000	    -27.40658610	      6.76317378	      2.70411438	      0.40670233	      1.18521047	     -0.23454058	      0.00000000	      0.50000000	      0.00000000	      0.25000000	     35.17932174	    -10.68108017	     -8.66317905	     26.61253414	      0.46447634	     -7.50498658	      1.99817266	      0.00000000	      0.00000000	     79.85320574	     -0.17053910	      0.51039673	    108.13502105	      1.88731215	    -10.01737794	     -4.36093330	      0.00000000	      0.00000000	    -59.09438872	     -1.41392500	     -6.97180148	     50.66123210	    -14.15246629	     19.22850251	     84.34104146	     56.38455078	      0.00000000	      0.00000000	     46.86055390	    -20.60363485	     15.27455625	     91.81128278	     54.24333735	      0.00000000	      0.00000000
      2.51000000	    -27.29744097	      6.68349724	      3.19706483	      0.40717717	      1.18601659	     -0.23488388	      0.00000000	      0.50000000	      0.00000000	      0.25000000	     34.27206710	    -10.95470625	     -9.61691384	     26.43102286	      0.46130837	     -8.00059852	      2.31347904	      0.00000000	      0.00000000	     80.51370941	      0.31576259	      0.60331342	    108.13844554	      1.88737192	     -9.69008119	     -4.73717467	      0.00000000	      0.00000000	    -59.21762775	     -1.25097417	     -7.09339304	     50.60552722	    -14.14282961	     18.96607394	     83.91538015	     56.30933438	      0.00000000	      0.00000000	     47.19854058	    -20.70438991	     15.69502966	     91.56527594	     54.26106820	      0.00000000	      0.00000000
      2.51500000	    -27.33569801	      6.65251480	      3.53525052	      0.40733170	      1.18674184	     -0.23461470	      0.00000000	      0.50000000	      0.00000000	      0.25000000	     33.72723624	    -11.09467539	    -10.05083560	     26.50424706	      0.46258638	     -8.48455764	      2.30112355	      0.00000000	      0.00000000	     81.23178185	      0.63650199	      0.60952210	    108.01079269	      1.88514396	     -9.12896136	     -5.06741438	      0.00000000	      0.00000000	    -59.28018511	     -1.32151743	     -7.31156024	     50.57414527	    -14.21695178	     18.88475661	     83.77609893	     56.28366674	      0.00000000	      0.00000000	     47.49686745	    -20.76162130	     15.72053909	     91.58520533	     54.26578455	      0.00000000	      0.00000000
      2.52000000	    -27.22675000	      6.61676197	      4.03453182	      0.40769093	      1.18808252	     -0.23482555	      0.00000000	      0.50000000	      0.00000000	      0.25000000	     33.06499810	    -11.35643367	    -10.70880557	     26.73609798	      0.46663294	     -9.07203954	      2.05217307	      0.00000000	      0.00000000	     81.68609176	      1.16783101	      0.61159765	    107.67351002	      1.87925727	     -8.83959022	     -5.52783308	      0.00000000	      0.00000000	    -59.56494127	     -1.13799670	     -7.48586632	     50.65078598	    -14.22559764	     18.76594552	     83.49053196	     56.23961197	      0.00000000	      0.00000000	     47.80715248	    -20.94128579	     16.05880985	     91.51258600	     54.29690196	      0.00000000	      0.00000000
      2.52500000	    -27.22602288	      6.52442840	      4.34432611	      0.40779468	      1.18921153	     -0.23508556	      0.00000000	      0.50000000	      0.00000000	      0.25000000	     32.76476790	    -11.49389658	    -11.08913668	     27.28836466	      0.47627181	     -9.62101563	      1.77019703	      0.00000000	      0.00000000	     82.19547241	      1.57546457	      0.64886627	    107.29270803	      1.87261102	     -8.30226048	     -5.95008571	      0.00000000	      0.00000000	    -59.76334624	     -1.04444795	     -7.58484286	     50.77949874	    -14.28842833	     18.68777591	     83.32404266	     56.21174861	      0.00000000	      0.00000000	     48.10260004	    -21.06391334	     16.20322497	     91.56172733	     54.32120306	      0.00000000	      0.00000000
      2.53000000	    -27.20536296	      6.45351048	      4.73480397	      0.40789477	      1.19048551	     -0.23549072	      0.00000000	      0.50000000	      0.00000000	      0.25000000	     32.56495058	    -11.67867102	    -11.36279897	     28.05387813	      0.48963254	    -10.29004470	      1.17788548	      0.00000000	      0.00000000	     82.58788752	      2.03449399	      0.62513416	    106.76178887	      1.86334473	     -7.92404419	     -6.50444977	      0.00000000	      0.00000000	    -59.98265548	     -0.86923756	     -7.76143296	     50.97126579	    -14.34183149	     18.68380763	     83.08788752	     56.19534685	      0.00000000	      0.00000000	     48.40855023	    -21.39468374	     16.64720788	     91.63587237	     54.38901852	      0.00000000	      0.00000000
      2.53500000	    -27.20691606	      6.27960011	      5.05075098	      0.40782157	      1.19184877	     -0.23596140	      0.00000000	      0.50000000	      0.00000000	      0.25000000	     32.58003827	    -11.78060049	    -11.58029169	     29.08652643	      0.50765565	    -11.02192134	      0.71686670	      0.00000000	      0.00000000	     82.91879290	      2.44667792	      0.74735608	    106.16112541	      1.85286118	     -7.23314302	     -6.87705115	      0.00000000	      0.00000000	    -60.23399158	     -0.64515677	     -7.81533338	     51.17873235	    -14.40982327	     18.63582675	     83.03515780	     56.18818594	      0.00000000	      0.00000000	     48.65456705	    -21.53203425	     16.75216581	     91.75509178	     54.41948062	      0.00000000	      0.00000000
      2.54000000	    -27.34539522	      6.18466895	      5.41802392	      0.40737493	      1.19305592	     -0.23670081	      0.00000000	      0.50000000	      0.00000000	      0.25000000	     32.91209784	    -11.98338409	    -11.62695170	     30.34647397	      0.52964589	    -11.93093512	     -0.25476702	      0.00000000	      0.00000000	     83.29848363	      2.91518387	      0.73792235	    105.36619776	      1.83898707	     -6.74081589	     -7.33313928	      0.00000000	      0.00000000	    -60.35846533	     -0.41047965	     -8.00532198	     51.40836758	    -14.53675284	     18.69924626	     82.98895563	     56.20811842	      0.00000000	      0.00000000	     48.90427940	    -21.88930608	     17.09297341	     92.01949623	     54.50294181	      0.00000000	      0.00000000
